<svg width="29" height="12" viewBox="0 0 29 12" fill="none" xmlns="http://www.w3.org/2000/svg">
<path d="M2.9515 10.4365C2.95072 10.4369 2.94987 10.4371 2.94901 10.4376C2.63485 10.5773 2.4984 10.9 2.63578 11.1792C2.77355 11.4594 3.14014 11.6016 3.47732 11.5057L12.9833 8.80039L11.2058 11.2832C11.0767 11.4636 11.104 11.6954 11.2726 11.8502C11.4412 12.0049 11.7097 12.0445 11.9293 11.9469L13.7933 11.1184C13.8468 11.0946 13.8954 11.0635 13.9372 11.0261L19.4594 6.09205L26.2745 3.05039C28.8556 1.86027 28.5566 0.945409 28.4035 0.693439C28.2849 0.498056 28.0195 0.236076 27.43 0.0975461C26.832 -0.0429859 26.0241 -0.0317754 24.9606 0.131845C24.6056 0.18643 24.4096 0.181825 24.2021 0.176954C23.4726 0.159871 22.9777 0.201711 20.5208 1.29374L7.08273 7.26702L1.8714 4.95364C1.67489 4.86643 1.44108 4.86649 1.24456 4.95391L0.366437 5.34428C0.185679 5.42462 0.0565665 5.57002 0.014595 5.74052C-0.0273764 5.91108 0.0222404 6.08871 0.149715 6.2245L3.76675 10.0781L2.9515 10.4365Z" fill="#21D696"/>
</svg>
